<?xml version="1.0" encoding="iso-8859-1"?>
<!-- Generator: Adobe Illustrator 16.0.2, SVG Export Plug-In . SVG Version: 6.00 Build 0)  -->
<svg version="1.2" baseProfile="tiny" id="Layer_1" xmlns="http://www.w3.org/2000/svg" xmlns:xlink="http://www.w3.org/1999/xlink"
	 x="0px" y="0px" width="100px" height="105px" viewBox="0 0 100 105" xml:space="preserve">
<g>
	<path fill="#FFFFFF" stroke="#FFFFFF" stroke-miterlimit="10" d="M57.187,43.045c0.194-0.923,11.411,0.74,16.895,0
		s10.554,0.024,12.59,7.052c2.27,7.834,1.715,18.47-12.59,16.99C59.775,65.607,54.968,53.587,57.187,43.045z"/>
	<path fill="#FFFFFF" d="M80.407,55.765c0,0-0.077-0.177-0.221-0.507c-0.288-0.654-0.448-1.236-0.608-1.996
		c-0.305-1.478-0.332-3.089-0.629-4.21c-0.146-0.574-0.34-1.013-0.718-1.494c-0.387-0.467-1.01-0.96-1.863-1.375
		c-0.842-0.421-1.868-0.774-2.974-1.05l-0.206-0.055c-0.022-0.004,0.151,0.02,0.07,0.008l-0.015-0.003l-0.029-0.007l-0.058-0.013
		l-0.116-0.027l-0.467-0.107c-0.251-0.044-0.421-0.096-0.695-0.132c-0.53-0.077-1.094-0.119-1.682-0.134
		c-2.354-0.068-5.063,0.294-7.704-0.008c-0.644-0.069-1.342-0.201-1.889-0.342c-0.649-0.167-1.233-0.353-1.785-0.574
		c-1.108-0.439-2.092-0.988-2.921-1.593c-0.827-0.608-1.511-1.26-2.009-1.919c-0.493-0.661-0.859-1.274-1.059-1.822
		c-0.216-0.537-0.331-0.974-0.376-1.275c-0.053-0.298-0.08-0.457-0.08-0.457s0.061,0.149,0.174,0.429
		c0.105,0.279,0.308,0.673,0.615,1.126c0.29,0.464,0.752,0.952,1.311,1.44c0.565,0.488,1.291,0.927,2.118,1.296
		c0.829,0.367,1.772,0.652,2.783,0.818c0.508,0.086,1.033,0.131,1.525,0.152c0.599,0.021,1.079,0.003,1.638-0.054
		c2.187-0.208,4.518-1.044,7.267-1.583c0.689-0.13,1.408-0.236,2.155-0.292c0.364-0.033,0.831-0.031,1.213-0.036l0.479,0.185
		l0.12,0.18h0.06h0.029h0.015l0.101-0.166l0.261-0.062c1.384,0.131,2.786,0.317,4.19,0.755c1.396,0.428,2.825,1.088,4.065,2.113
		c1.239,1.023,2.186,2.378,2.727,3.6c0.563,1.229,0.832,2.284,1.055,3.083c0.216,0.813,0.375,1.367,0.514,1.719
		c0.124,0.326,0.272,0.571,0.241,0.46c0.131,0.205,0.2,0.313,0.2,0.313L80.407,55.765z"/>
	<g>
		<path fill="#FFFFFF" stroke="#FFFFFF" stroke-miterlimit="10" d="M43.257,43.045c-0.194-0.923-11.411,0.74-16.894,0
			s-10.554,0.024-12.59,7.052c-2.27,7.834-1.715,18.47,12.59,16.99S45.477,53.587,43.257,43.045z"/>
		<g>
			<path fill="#FFFFFF" d="M16.626,53.956c2.021-3.476-0.555-9.752,10.24-11.423c3.974-0.615,8.022,1.048,12.027,0.687
				s8.287-2.628,9.176-6.55"/>
			<path fill="#FFFFFF" d="M13.214,52.148c0,0,0.069-0.109,0.2-0.314c-0.031,0.111,0.118-0.136,0.242-0.462
				c0.139-0.352,0.298-0.909,0.514-1.722c0.222-0.799,0.491-1.86,1.054-3.089c0.541-1.221,1.488-2.587,2.727-3.61
				c1.24-1.024,2.668-1.708,4.064-2.135c1.405-0.438,2.807-0.669,4.191-0.8l0.26,0.151l0.1,0.166h0.015h0.03h0.06l0.12-0.18
				l0.479-0.096c0.382,0.005,0.849-0.042,1.213-0.009c0.748,0.056,1.466,0.14,2.155,0.27c2.75,0.538,5.08,1.364,7.267,1.571
				c0.559,0.057,1.04,0.069,1.639,0.048c0.492-0.021,1.018-0.068,1.524-0.155c1.011-0.166,1.955-0.453,2.784-0.82
				c0.826-0.37,1.552-0.81,2.117-1.297c0.56-0.489,1.021-0.976,1.311-1.44c0.308-0.453,0.51-0.848,0.615-1.127
				c0.114-0.28,0.174-0.429,0.174-0.429s-0.028,0.159-0.08,0.457c-0.045,0.302-0.161,0.739-0.376,1.275
				c-0.199,0.548-0.566,1.161-1.059,1.822c-0.498,0.66-1.182,1.311-2.009,1.919c-0.83,0.605-1.813,1.154-2.921,1.593
				c-0.551,0.221-1.136,0.407-1.786,0.574c-0.546,0.141-1.244,0.273-1.888,0.342c-2.642,0.302-5.35-0.06-7.704,0.008
				c-0.588,0.016-1.152,0.058-1.682,0.134c-0.275,0.036-0.444,0.088-0.696,0.132l-0.466,0.107l-0.117,0.027l-0.058,0.013
				L27.2,45.083l-0.015,0.003c-0.081,0.011,0.093-0.012,0.071-0.008l-0.207,0.055c-1.105,0.276-2.131,0.629-2.974,1.05
				c-0.854,0.415-1.476,0.908-1.863,1.375c-0.377,0.48-0.572,0.92-0.717,1.494c-0.297,1.121-0.325,2.731-0.629,4.209
				c-0.16,0.759-0.32,1.341-0.608,1.997c-0.144,0.33-0.22,0.506-0.22,0.506L13.214,52.148z"/>
		</g>
	</g>
	<path fill="none" stroke="#FFFFFF" stroke-width="5" stroke-miterlimit="10" d="M21.722,87.333l28.5,14.5l27.5-14.5V77.181
		c8-0.445,13.241-4.324,15.711-7.613c4.202-5.591,5.381-13.494,2.843-22.254c-0.527-1.822-1.23-3.483-2.081-4.987
		C93.752,20.448,74.241,2.833,50.222,2.833S6.692,20.448,6.25,42.327c-0.851,1.504-1.554,3.165-2.082,4.987
		c-2.538,8.76-1.859,16.663,2.343,22.254c2.471,3.289,7.211,7.168,15.211,7.613V87.333z"/>
	<polygon fill="#FFFFFF" points="48.335,102.333 50.222,80.332 52.108,102.333 	"/>
	<polygon fill="#FFFFFF" points="36.335,96.333 38.222,80.332 40.108,96.333 	"/>
	<polygon fill="#FFFFFF" points="60.335,96.333 62.222,80.332 64.108,96.333 	"/>
	<path fill="#FFFFFF" stroke="#FFFFFF" stroke-miterlimit="10" d="M50.222,61.833c0,0-7.745,12.512-6.712,13.756
		c1.032,1.244,6.712-4.256,6.712-4.256s5.681,5.5,6.713,4.256S50.222,61.833,50.222,61.833z"/>
	<path fill="#FFFFFF" d="M4.023,41.189c0,0,0.064-0.098,0.184-0.28c0.147-0.234,0.334-0.476,0.573-0.79
		c0.25-0.296,0.537-0.67,0.904-1.043c0.353-0.39,0.776-0.797,1.244-1.224c0.472-0.423,1-0.857,1.573-1.285
		c0.583-0.417,1.191-0.855,1.866-1.234c0.648-0.417,1.37-0.752,2.085-1.105c0.719-0.348,1.489-0.609,2.229-0.909
		c0.772-0.223,1.528-0.475,2.285-0.658c0.767-0.15,1.51-0.323,2.234-0.437c0.727-0.082,1.429-0.16,2.095-0.234
		c0.665-0.048,1.297-0.041,1.873-0.061c0.577-0.018,1.103-0.03,1.571,0.015c0.465,0.029,0.872,0.054,1.206,0.075
		c0.664,0.042,1.043,0.065,1.043,0.065s-0.377,0.054-1.037,0.149c-0.328,0.048-0.726,0.105-1.182,0.171
		c-0.457,0.049-0.963,0.168-1.512,0.301c-0.548,0.135-1.145,0.251-1.76,0.427c-0.606,0.199-1.246,0.408-1.907,0.625
		c-0.647,0.245-1.295,0.548-1.956,0.824c-0.648,0.309-1.277,0.678-1.912,1.01c-0.598,0.407-1.216,0.766-1.769,1.195
		c-0.549,0.435-1.098,0.838-1.565,1.303c-0.496,0.429-0.918,0.898-1.319,1.333c-0.39,0.444-0.739,0.878-1.038,1.288
		c-0.296,0.413-0.555,0.792-0.756,1.141c-0.22,0.339-0.36,0.65-0.494,0.893c-0.114,0.246-0.209,0.443-0.229,0.522
		c-0.05,0.129-0.077,0.198-0.077,0.198L4.023,41.189z"/>
	<path fill="#FFFFFF" d="M91.968,43.464c0,0-0.026-0.069-0.076-0.198c-0.021-0.079-0.114-0.276-0.229-0.522
		c-0.134-0.243-0.274-0.554-0.495-0.893c-0.2-0.349-0.46-0.728-0.756-1.141c-0.299-0.409-0.647-0.844-1.038-1.288
		c-0.401-0.434-0.823-0.904-1.319-1.333c-0.467-0.465-1.016-0.869-1.564-1.303c-0.553-0.429-1.171-0.788-1.769-1.195
		c-0.636-0.332-1.265-0.702-1.913-1.01c-0.66-0.276-1.308-0.579-1.956-0.824c-0.661-0.217-1.3-0.427-1.906-0.625
		c-0.615-0.176-1.212-0.292-1.76-0.427c-0.549-0.133-1.057-0.252-1.513-0.301c-0.456-0.066-0.854-0.124-1.182-0.171
		c-0.66-0.095-1.037-0.149-1.037-0.149s0.38-0.023,1.043-0.065c0.335-0.021,0.74-0.046,1.206-0.075
		c0.469-0.045,0.994-0.033,1.571-0.015c0.576,0.02,1.208,0.013,1.873,0.061c0.666,0.075,1.368,0.153,2.095,0.234
		c0.726,0.113,1.468,0.286,2.235,0.437c0.757,0.183,1.513,0.435,2.285,0.658c0.739,0.301,1.51,0.561,2.228,0.909
		c0.716,0.354,1.438,0.689,2.086,1.105c0.674,0.379,1.282,0.817,1.865,1.234c0.573,0.428,1.102,0.861,1.573,1.285
		c0.469,0.427,0.891,0.834,1.244,1.224c0.367,0.373,0.654,0.747,0.904,1.043c0.239,0.314,0.426,0.556,0.573,0.79
		c0.119,0.183,0.184,0.28,0.184,0.28L91.968,43.464z"/>
</g>
</svg>
